<svg viewBox="0 0 330 200" xmlns="http://www.w3.org/2000/svg"><g><g><g><g><g><line x1="30.766000747680664" y1="177.60200023651123" x2="25.766000747680664" y2="177.60200023651123" style="visibility: inherit;" fill="rgb(0, 0, 0)" stroke="rgb(204, 204, 204)" stroke-width="1px"></line><line x1="30.766000747680664" y1="155.40175020694733" x2="25.766000747680664" y2="155.40175020694733" style="visibility: inherit;" fill="rgb(0, 0, 0)" stroke="rgb(204, 204, 204)" stroke-width="1px"></line><line x1="30.766000747680664" y1="133.20150017738342" x2="25.766000747680664" y2="133.20150017738342" style="visibility: inherit;" fill="rgb(0, 0, 0)" stroke="rgb(204, 204, 204)" stroke-width="1px"></line><line x1="30.766000747680664" y1="111.00125014781952" x2="25.766000747680664" y2="111.00125014781952" style="visibility: inherit;" fill="rgb(0, 0, 0)" stroke="rgb(204, 204, 204)" stroke-width="1px"></line><line x1="30.766000747680664" y1="88.80100011825562" x2="25.766000747680664" y2="88.80100011825562" style="visibility: inherit;" fill="rgb(0, 0, 0)" stroke="rgb(204, 204, 204)" stroke-width="1px"></line><line x1="30.766000747680664" y1="66.60075008869171" x2="25.766000747680664" y2="66.60075008869171" style="visibility: inherit;" fill="rgb(0, 0, 0)" stroke="rgb(204, 204, 204)" stroke-width="1px"></line><line x1="30.766000747680664" y1="44.40050005912781" x2="25.766000747680664" y2="44.40050005912781" style="visibility: inherit;" fill="rgb(0, 0, 0)" stroke="rgb(204, 204, 204)" stroke-width="1px"></line><line x1="30.766000747680664" y1="22.200250029563904" x2="25.766000747680664" y2="22.200250029563904" style="visibility: inherit;" fill="rgb(0, 0, 0)" stroke="rgb(204, 204, 204)" stroke-width="1px"></line><line x1="30.766000747680664" y1="0" x2="25.766000747680664" y2="0" style="visibility: inherit;" fill="rgb(0, 0, 0)" stroke="rgb(204, 204, 204)" stroke-width="1px"></line></g><g transform="translate(20.766000747680664, 0)"><text style="text-anchor: end; visibility: hidden; font-family: Roboto, sans-serif; font-size: 12px; font-weight: 200;" x="0" y="177.60200023651123" dx="0em" dy="0.3em" fill="rgb(50, 49, 63)" stroke="none" stroke-width="1px">-2</text><text style="text-anchor: end; visibility: inherit; font-family: Roboto, sans-serif; font-size: 12px; font-weight: 200;" x="0" y="155.40175020694733" dx="0em" dy="0.3em" fill="rgb(50, 49, 63)" stroke="none" stroke-width="1px">0</text><text style="text-anchor: end; visibility: hidden; font-family: Roboto, sans-serif; font-size: 12px; font-weight: 200;" x="0" y="133.20150017738342" dx="0em" dy="0.3em" fill="rgb(50, 49, 63)" stroke="none" stroke-width="1px">2</text><text style="text-anchor: end; visibility: inherit; font-family: Roboto, sans-serif; font-size: 12px; font-weight: 200;" x="0" y="111.00125014781952" dx="0em" dy="0.3em" fill="rgb(50, 49, 63)" stroke="none" stroke-width="1px">4</text><text style="text-anchor: end; visibility: hidden; font-family: Roboto, sans-serif; font-size: 12px; font-weight: 200;" x="0" y="88.80100011825562" dx="0em" dy="0.3em" fill="rgb(50, 49, 63)" stroke="none" stroke-width="1px">6</text><text style="text-anchor: end; visibility: inherit; font-family: Roboto, sans-serif; font-size: 12px; font-weight: 200;" x="0" y="66.60075008869171" dx="0em" dy="0.3em" fill="rgb(50, 49, 63)" stroke="none" stroke-width="1px">8</text><text style="text-anchor: end; visibility: hidden; font-family: Roboto, sans-serif; font-size: 12px; font-weight: 200;" x="0" y="44.40050005912781" dx="0em" dy="0.3em" fill="rgb(50, 49, 63)" stroke="none" stroke-width="1px">10</text><text style="text-anchor: end; visibility: inherit; font-family: Roboto, sans-serif; font-size: 12px; font-weight: 200;" x="0" y="22.200250029563904" dx="0em" dy="0.3em" fill="rgb(50, 49, 63)" stroke="none" stroke-width="1px">12</text><text style="text-anchor: end; visibility: hidden; font-family: Roboto, sans-serif; font-size: 12px; font-weight: 200;" x="0" y="0" dx="0em" dy="0.3em" fill="rgb(50, 49, 63)" stroke="none" stroke-width="1px">14</text></g><line x1="30.766000747680664" y1="0" x2="30.766000747680664" y2="177.60200023651123" fill="rgb(0, 0, 0)" stroke="rgb(204, 204, 204)" stroke-width="1px"></line></g></g><g transform="translate(30, 0)" clip-path="url(#clip_0)"><clipPath id="clip_0"><rect width="299" height="177"></rect></clipPath><g><g><g><line x1="0" y1="0" x2="0" y2="177.60200023651123" fill="rgb(0, 0, 0)" stroke="rgb(60, 60, 60)" stroke-width="1px" opacity="0.25"></line><line x1="24.936166604359943" y1="0" x2="24.936166604359943" y2="177.60200023651123" fill="rgb(0, 0, 0)" stroke="rgb(60, 60, 60)" stroke-width="1px" opacity="0.25"></line><line x1="49.87233320871989" y1="0" x2="49.87233320871989" y2="177.60200023651123" fill="rgb(0, 0, 0)" stroke="rgb(60, 60, 60)" stroke-width="1px" opacity="0.25"></line><line x1="74.80849981307983" y1="0" x2="74.80849981307983" y2="177.60200023651123" fill="rgb(0, 0, 0)" stroke="rgb(60, 60, 60)" stroke-width="1px" opacity="0.25"></line><line x1="99.74466641743977" y1="0" x2="99.74466641743977" y2="177.60200023651123" fill="rgb(0, 0, 0)" stroke="rgb(60, 60, 60)" stroke-width="1px" opacity="0.25"></line><line x1="124.68083302179973" y1="0" x2="124.68083302179973" y2="177.60200023651123" fill="rgb(0, 0, 0)" stroke="rgb(60, 60, 60)" stroke-width="1px" opacity="0.25"></line><line x1="149.61699962615967" y1="0" x2="149.61699962615967" y2="177.60200023651123" fill="rgb(0, 0, 0)" stroke="rgb(60, 60, 60)" stroke-width="1px" opacity="0.25"></line><line x1="174.55316623051962" y1="0" x2="174.55316623051962" y2="177.60200023651123" fill="rgb(0, 0, 0)" stroke="rgb(60, 60, 60)" stroke-width="1px" opacity="0.25"></line><line x1="199.48933283487955" y1="0" x2="199.48933283487955" y2="177.60200023651123" fill="rgb(0, 0, 0)" stroke="rgb(60, 60, 60)" stroke-width="1px" opacity="0.25"></line><line x1="224.4254994392395" y1="0" x2="224.4254994392395" y2="177.60200023651123" fill="rgb(0, 0, 0)" stroke="rgb(60, 60, 60)" stroke-width="1px" opacity="0.25"></line><line x1="249.36166604359946" y1="0" x2="249.36166604359946" y2="177.60200023651123" fill="rgb(0, 0, 0)" stroke="rgb(60, 60, 60)" stroke-width="1px" opacity="0.25"></line><line x1="274.29783264795935" y1="0" x2="274.29783264795935" y2="177.60200023651123" fill="rgb(0, 0, 0)" stroke="rgb(60, 60, 60)" stroke-width="1px" opacity="0.25"></line><line x1="299.23399925231934" y1="0" x2="299.23399925231934" y2="177.60200023651123" fill="rgb(0, 0, 0)" stroke="rgb(60, 60, 60)" stroke-width="1px" opacity="0.25"></line></g><g><line x1="0" y1="177.60200023651123" x2="299.23399925231934" y2="177.60200023651123" fill="rgb(0, 0, 0)" stroke="rgb(60, 60, 60)" stroke-width="1px" opacity="0.25"></line><line x1="0" y1="155.40175020694733" x2="299.23399925231934" y2="155.40175020694733" fill="rgb(0, 0, 0)" stroke="rgb(60, 60, 60)" stroke-width="1px" opacity="0.25"></line><line x1="0" y1="133.20150017738342" x2="299.23399925231934" y2="133.20150017738342" fill="rgb(0, 0, 0)" stroke="rgb(60, 60, 60)" stroke-width="1px" opacity="0.25"></line><line x1="0" y1="111.00125014781952" x2="299.23399925231934" y2="111.00125014781952" fill="rgb(0, 0, 0)" stroke="rgb(60, 60, 60)" stroke-width="1px" opacity="0.25"></line><line x1="0" y1="88.80100011825562" x2="299.23399925231934" y2="88.80100011825562" fill="rgb(0, 0, 0)" stroke="rgb(60, 60, 60)" stroke-width="1px" opacity="0.25"></line><line x1="0" y1="66.60075008869171" x2="299.23399925231934" y2="66.60075008869171" fill="rgb(0, 0, 0)" stroke="rgb(60, 60, 60)" stroke-width="1px" opacity="0.25"></line><line x1="0" y1="44.40050005912781" x2="299.23399925231934" y2="44.40050005912781" fill="rgb(0, 0, 0)" stroke="rgb(60, 60, 60)" stroke-width="1px" opacity="0.25"></line><line x1="0" y1="22.200250029563904" x2="299.23399925231934" y2="22.200250029563904" fill="rgb(0, 0, 0)" stroke="rgb(60, 60, 60)" stroke-width="1px" opacity="0.25"></line><line x1="0" y1="0" x2="299.23399925231934" y2="0" fill="rgb(0, 0, 0)" stroke="rgb(60, 60, 60)" stroke-width="1px" opacity="0.25"></line></g></g></g><g><g><line x1="0" y1="155.40175020694733" x2="299.23399925231934" y2="155.40175020694733" fill="rgb(0, 0, 0)" stroke="rgb(153, 153, 153)" stroke-width="1.5px"></line></g></g><g><g><line x1="24.936166604359943" y1="0" x2="24.936166604359943" y2="177.60200023651123" fill="rgb(0, 0, 0)" stroke="rgb(153, 153, 153)" stroke-width="1.5px"></line></g></g><g><g><g><g><g><path style="fill: none;" stroke="rgb(0, 119, 187)" stroke-width="2px" d="M24.936166604359943,121.2312217820918L29.923399925231934,86.59589839516853L34.91063324610392,105.03106394483795L39.897866566975914,97.95286962036676L44.8850998878479,104.24498429420085L49.87233320871989,100.36216899425901L54.85956652959187,107.04263482761526L59.84679985046387,113.91232706525324L64.83403317133586,112.3362933584849L69.82126649220784,114.6977830849534L74.80849981307983,113.86526555811587L79.79573313395183,113.69688417384076L84.78296645482381,114.011800691426L89.7701997756958,114.37074770893126L94.75743309656778,111.63900544626254L99.74466641743977,109.26754821530112L104.73189973831177,101.4915611038781L109.71913305918375,101.67632540845776L114.70636638005575,103.94634527883524L119.69359970092773,104.02589616906235L124.68083302179973,106.35815964785908L129.66806634267172,108.30780575339837L134.6552996635437,93.09809941604327L139.64253298441568,95.2036498467639L144.6297663052877,91.53611965641628L149.61699962615967,99.21453689180053L154.60423294703168,91.7561848727531L159.59146626790366,86.27563559855662L164.57869958877563,83.79276028991909L169.56593290964761,79.51647577089416L174.55316623051962,91.83550086584616L179.5403995513916,93.6354165786593L184.5276328722636,78.62301031119641L189.51486619313556,85.21890221569946L194.50209951400757,80.7112346552498L199.48933283487955,71.70368727378906L204.47656615575156,75.09368252159402L209.46379947662354,81.30686124266998L214.45103279749551,84.6174911732268L219.4382661183675,78.23812124832904L224.4254994392395,62.5513183700612L229.4127327601115,68.54750707937244L234.3999660809835,72.19433889831532L239.38719940185547,68.33679426128472L244.37443272272745,64.0956625671651L249.36166604359946,73.29570967547019L254.34889936447144,73.14893831603838L259.33613268534344,71.56819103309624L264.3233660062154,70.55714821219964L269.3105993270874,72.47741171172694" fill="none"></path></g><g><path style="fill: none;" stroke="rgb(255, 112, 67)" stroke-width="2px" d="M24.936166604359943,122.83103771637691L29.923399925231934,125.47678266124657L34.91063324610392,123.0569924899062L39.897866566975914,120.25439809856648L44.8850998878479,118.22333741259659L49.87233320871989,116.11803239807523L54.85956652959187,113.50622355403851L59.84679985046387,110.40749896192654L64.83403317133586,107.1060046940583L69.82126649220784,103.10962485022698L74.80849981307983,98.92798734866226L79.79573313395183,94.26112195981078L84.78296645482381,89.62851588515365L89.7701997756958,84.31140254554381L94.75743309656778,77.34147592008628L99.74466641743977,71.85071104538065L104.73189973831177,66.34745168069237L109.71913305918375,61.590712947249095L114.70636638005575,57.70203785287222L119.69359970092773,52.891135968492776L124.68083302179973,47.971703440914666L129.66806634267172,45.064070479288084L134.6552996635437,40.29404413516981L139.64253298441568,34.99273945821631L144.6297663052877,30.771688737321696L149.61699962615967,29.85961400128414L154.60423294703168,28.82574834731912L159.59146626790366,28.011347546552628L164.57869958877563,25.56754945301525L169.56593290964761,24.087924462285635L174.55316623051962,24.181928900565985L179.5403995513916,24.521250451995723L184.5276328722636,25.002990127193133L189.51486619313556,26.13839391491776L194.50209951400757,26.07916486281068L199.48933283487955,25.616388805606064L204.47656615575156,25.25569581050881L209.46379947662354,27.613102881047464L214.45103279749551,29.922974875691725L219.4382661183675,30.398264719338837L224.4254994392395,30.087558080855487L229.4127327601115,28.570367385326378L234.3999660809835,29.760076162758946L239.38719940185547,27.264572871684294L244.37443272272745,28.65774355309056L249.36166604359946,26.458192997500312L254.34889936447144,25.311686165152036L259.33613268534344,23.452312039217023L264.3233660062154,23.823219503472266L269.3105993270874,20.416983794131273" fill="none"></path></g></g></g></g><g opacity="0.2"><g><g><g><path style="fill: none;" stroke="rgb(0, 119, 187)" stroke-width="2px" d="M24.936166604359943,121.2312217820918L29.923399925231934,65.81470436301458L34.91063324610392,122.7288228725206L39.897866566975914,89.62891309478863L44.8850998878479,112.45996921235864L49.87233320871989,94.9908376209315L54.85956652959187,116.59580785676802L59.84679985046387,123.92840429677484L64.83403317133586,110.0119497697888L69.82126649220784,118.20432011130045L74.80849981307983,112.6240401405547L79.79573313395183,113.44522842148564L84.78296645482381,114.48314721073466L89.7701997756958,114.90846502061459L94.75743309656778,107.54460311274357L99.74466641743977,105.7120349042313L104.73189973831177,89.83087097388562L109.71913305918375,101.95342495369033L114.70636638005575,107.35102926972189L119.69359970092773,104.14521523313653L124.68083302179973,109.85642695918216L129.66806634267172,111.23221075777174L134.6552996635437,70.28384019913005L139.64253298441568,98.36195055059264L144.6297663052877,86.03485043812981L149.61699962615967,110.73212999993487L154.60423294703168,80.56867592806057L159.59146626790366,78.05482010119604L164.57869958877563,80.06844961404184L169.56593290964761,73.10205135579423L174.55316623051962,110.31403442315138L179.5403995513916,96.33528978975605L184.5276328722636,56.104402702181915L189.51486619313556,95.1127396000038L194.50209951400757,73.94973350830028L199.48933283487955,58.192366433867164L204.47656615575156,80.17867534085269L209.46379947662354,90.62662926660707L214.45103279749551,89.58343605062254L219.4382661183675,68.66906638230148L224.4254994392395,39.021114084113435L229.4127327601115,77.54179013612543L234.3999660809835,77.66458662409718L239.38719940185547,62.55047730740955L244.37443272272745,57.73396502708778L249.36166604359946,87.09578033649336L254.34889936447144,72.92878127690443L259.33613268534344,69.19707010877175L264.3233660062154,69.04058398088878L269.3105993270874,75.35780696097916" fill="none"></path></g><g><path style="fill: none;" stroke="rgb(255, 112, 67)" stroke-width="2px" d="M24.936166604359943,122.83103771637691L29.923399925231934,127.06422962816838L34.91063324610392,120.73399392541944L39.897866566975914,116.95854709435096L44.8850998878479,115.5715845809943L49.87233320871989,113.20563765318695L54.85956652959187,109.7712951181245L59.84679985046387,105.88952875887117L64.83403317133586,102.23694193119925L69.82126649220784,97.17546653623003L74.80849981307983,92.6934582406858L79.79573313395183,87.28622075189094L84.78296645482381,82.6947330357774L89.7701997756958,76.34614931468562L94.75743309656778,66.89477886900718L99.74466641743977,63.618436246119074L104.73189973831177,58.094891428587516L109.71913305918375,54.4568125825333L114.70636638005575,51.86961761181806L119.69359970092773,45.67522287741184L124.68083302179973,40.59282444291881L129.66806634267172,40.702716713749396L134.6552996635437,33.13909879484157L139.64253298441568,27.04084524179393L144.6297663052877,24.440142657401793L149.61699962615967,28.49150578680991L154.60423294703168,27.274952511750428L159.59146626790366,26.789747595699964L164.57869958877563,21.90185456379254L169.56593290964761,21.868487793957456L174.55316623051962,24.32293552681358L179.5403995513916,25.030232711626752L184.5276328722636,25.72559958247922L189.51486619313556,27.841499515178043L194.50209951400757,25.99032128719557L199.48933283487955,24.922224731732285L204.47656615575156,24.714656323443478L209.46379947662354,31.149213464971695L214.45103279749551,33.38778285479265L219.4382661183675,31.111199483221128L224.4254994392395,29.62149812375344L229.4127327601115,26.294581343858L234.3999660809835,31.544639328049016L239.38719940185547,23.52131793615314L244.37443272272745,30.74749957483789L249.36166604359946,23.158867164457888L254.34889936447144,23.591925916736898L259.33613268534344,20.66325085041882L264.3233660062154,24.37958069984262L269.3105993270874,15.307630230188636" fill="none"></path></g></g></g></g></g></g><g transform="translate(30, 177)" clip-path="url(#clip_1)"><clipPath id="clip_1"><rect width="299" height="22"></rect></clipPath><g><g><line x1="0" y1="0" x2="0" y2="5" style="visibility: inherit;" fill="rgb(0, 0, 0)" stroke="rgb(204, 204, 204)" stroke-width="1px"></line><line x1="24.936166604359943" y1="0" x2="24.936166604359943" y2="5" style="visibility: inherit;" fill="rgb(0, 0, 0)" stroke="rgb(204, 204, 204)" stroke-width="1px"></line><line x1="49.87233320871989" y1="0" x2="49.87233320871989" y2="5" style="visibility: inherit;" fill="rgb(0, 0, 0)" stroke="rgb(204, 204, 204)" stroke-width="1px"></line><line x1="74.80849981307983" y1="0" x2="74.80849981307983" y2="5" style="visibility: inherit;" fill="rgb(0, 0, 0)" stroke="rgb(204, 204, 204)" stroke-width="1px"></line><line x1="99.74466641743977" y1="0" x2="99.74466641743977" y2="5" style="visibility: inherit;" fill="rgb(0, 0, 0)" stroke="rgb(204, 204, 204)" stroke-width="1px"></line><line x1="124.68083302179973" y1="0" x2="124.68083302179973" y2="5" style="visibility: inherit;" fill="rgb(0, 0, 0)" stroke="rgb(204, 204, 204)" stroke-width="1px"></line><line x1="149.61699962615967" y1="0" x2="149.61699962615967" y2="5" style="visibility: inherit;" fill="rgb(0, 0, 0)" stroke="rgb(204, 204, 204)" stroke-width="1px"></line><line x1="174.55316623051962" y1="0" x2="174.55316623051962" y2="5" style="visibility: inherit;" fill="rgb(0, 0, 0)" stroke="rgb(204, 204, 204)" stroke-width="1px"></line><line x1="199.48933283487955" y1="0" x2="199.48933283487955" y2="5" style="visibility: inherit;" fill="rgb(0, 0, 0)" stroke="rgb(204, 204, 204)" stroke-width="1px"></line><line x1="224.4254994392395" y1="0" x2="224.4254994392395" y2="5" style="visibility: inherit;" fill="rgb(0, 0, 0)" stroke="rgb(204, 204, 204)" stroke-width="1px"></line><line x1="249.36166604359946" y1="0" x2="249.36166604359946" y2="5" style="visibility: inherit;" fill="rgb(0, 0, 0)" stroke="rgb(204, 204, 204)" stroke-width="1px"></line><line x1="274.29783264795935" y1="0" x2="274.29783264795935" y2="5" style="visibility: inherit;" fill="rgb(0, 0, 0)" stroke="rgb(204, 204, 204)" stroke-width="1px"></line><line x1="299.23399925231934" y1="0" x2="299.23399925231934" y2="5" style="visibility: inherit;" fill="rgb(0, 0, 0)" stroke="rgb(204, 204, 204)" stroke-width="1px"></line></g><g transform="translate(0, 8)"><text style="text-anchor: middle; visibility: hidden; font-family: Roboto, sans-serif; font-size: 12px; font-weight: 200;" x="0" y="0" dx="0em" dy="0.95em" fill="rgb(50, 49, 63)" stroke="none" stroke-width="1px">-5</text><text style="text-anchor: middle; visibility: inherit; font-family: Roboto, sans-serif; font-size: 12px; font-weight: 200;" x="24.936166604359943" y="0" dx="0em" dy="0.95em" fill="rgb(50, 49, 63)" stroke="none" stroke-width="1px">0</text><text style="text-anchor: middle; visibility: inherit; font-family: Roboto, sans-serif; font-size: 12px; font-weight: 200;" x="49.87233320871989" y="0" dx="0em" dy="0.95em" fill="rgb(50, 49, 63)" stroke="none" stroke-width="1px">5</text><text style="text-anchor: middle; visibility: inherit; font-family: Roboto, sans-serif; font-size: 12px; font-weight: 200;" x="74.80849981307983" y="0" dx="0em" dy="0.95em" fill="rgb(50, 49, 63)" stroke="none" stroke-width="1px">10</text><text style="text-anchor: middle; visibility: inherit; font-family: Roboto, sans-serif; font-size: 12px; font-weight: 200;" x="99.74466641743977" y="0" dx="0em" dy="0.95em" fill="rgb(50, 49, 63)" stroke="none" stroke-width="1px">15</text><text style="text-anchor: middle; visibility: inherit; font-family: Roboto, sans-serif; font-size: 12px; font-weight: 200;" x="124.68083302179973" y="0" dx="0em" dy="0.95em" fill="rgb(50, 49, 63)" stroke="none" stroke-width="1px">20</text><text style="text-anchor: middle; visibility: inherit; font-family: Roboto, sans-serif; font-size: 12px; font-weight: 200;" x="149.61699962615967" y="0" dx="0em" dy="0.95em" fill="rgb(50, 49, 63)" stroke="none" stroke-width="1px">25</text><text style="text-anchor: middle; visibility: inherit; font-family: Roboto, sans-serif; font-size: 12px; font-weight: 200;" x="174.55316623051962" y="0" dx="0em" dy="0.95em" fill="rgb(50, 49, 63)" stroke="none" stroke-width="1px">30</text><text style="text-anchor: middle; visibility: inherit; font-family: Roboto, sans-serif; font-size: 12px; font-weight: 200;" x="199.48933283487955" y="0" dx="0em" dy="0.95em" fill="rgb(50, 49, 63)" stroke="none" stroke-width="1px">35</text><text style="text-anchor: middle; visibility: inherit; font-family: Roboto, sans-serif; font-size: 12px; font-weight: 200;" x="224.4254994392395" y="0" dx="0em" dy="0.95em" fill="rgb(50, 49, 63)" stroke="none" stroke-width="1px">40</text><text style="text-anchor: middle; visibility: inherit; font-family: Roboto, sans-serif; font-size: 12px; font-weight: 200;" x="249.36166604359946" y="0" dx="0em" dy="0.95em" fill="rgb(50, 49, 63)" stroke="none" stroke-width="1px">45</text><text style="text-anchor: middle; visibility: inherit; font-family: Roboto, sans-serif; font-size: 12px; font-weight: 200;" x="274.29783264795935" y="0" dx="0em" dy="0.95em" fill="rgb(50, 49, 63)" stroke="none" stroke-width="1px">50</text><text style="text-anchor: middle; visibility: hidden; font-family: Roboto, sans-serif; font-size: 12px; font-weight: 200;" x="299.23399925231934" y="0" dx="0em" dy="0.95em" fill="rgb(50, 49, 63)" stroke="none" stroke-width="1px">55</text></g><line x1="0" y1="0" x2="299.23399925231934" y2="0" fill="rgb(0, 0, 0)" stroke="rgb(204, 204, 204)" stroke-width="1px"></line></g></g></g></g></svg>